<svg width="424" height="255" viewBox="0 0 424 255" fill="none" xmlns="http://www.w3.org/2000/svg">
<mask id="mask0_118_728" style="mask-type:luminance" maskUnits="userSpaceOnUse" x="0" y="0" width="424" height="255">
<path d="M423.684 0H0V254.976H423.684V0Z" fill="white"/>
</mask>
<g mask="url(#mask0_118_728)">
<path d="M401.328 154.256C386.354 194.644 358.203 230.028 319.101 245.579C314.015 247.598 308.822 249.311 303.547 250.709C275.65 258.119 245.13 255.542 219.413 242.04C208.498 236.305 198.546 228.727 187.591 223.075C176.637 217.422 164.128 213.722 152.205 216.513C141.94 218.915 133.279 225.8 124.558 231.933C104.001 246.392 79.282 257.834 54.9391 252.868C43.7378 250.586 32.7078 244.264 27.5058 233.697C16.0081 210.335 37.6925 182.56 33.3009 156.723C30.4906 140.188 17.6553 127.805 9.67608 113.212C-3.97956 88.2507 -2.36525 55.0939 13.6459 31.7047C29.6571 8.31535 59.2153 -4.09145 86.3157 1.21448C119.363 7.68729 144.348 36.8217 176.482 47.1315C196.579 53.5735 218.398 51.6515 237.592 43.1675C268.603 29.4567 311.207 8.42861 346.106 11.8538C364.663 13.6762 382.865 22.2563 395.114 36.9075C410.598 55.4027 415.24 81.6612 412.657 106.049C410.885 122.558 407.077 138.761 401.328 154.256Z" fill="url(#paint0_linear_118_728)"/>
<path d="M411.29 186.202C410.602 186.201 409.916 186.114 409.248 185.944C407.133 185.403 405.298 184.041 404.115 182.137C402.932 180.233 402.491 177.93 402.879 175.699C403.271 173.468 404.467 171.476 406.22 170.131C407.973 168.786 410.154 168.188 412.315 168.461C414.476 168.733 416.456 169.855 417.85 171.597C419.246 173.338 419.948 175.569 419.82 177.833C419.688 180.097 418.732 182.224 417.148 183.779C415.563 185.335 413.468 186.201 411.29 186.202ZM411.267 172.412C410.134 172.415 409.04 172.851 408.193 173.638C407.347 174.424 406.806 175.505 406.671 176.679C406.54 177.852 406.823 179.036 407.469 180.006C408.114 180.976 409.08 181.667 410.183 181.946C411.379 182.248 412.641 182.043 413.692 181.376C414.743 180.709 415.494 179.634 415.784 178.389C416.077 177.143 415.879 175.828 415.237 174.734C414.598 173.639 413.567 172.855 412.371 172.552C412.008 172.459 411.639 172.41 411.267 172.408V172.412Z" fill="#E7F6FF"/>
<path d="M403.492 195.642C403.976 193.555 402.748 191.453 400.741 190.947C398.738 190.441 396.722 191.723 396.234 193.81C395.75 195.897 396.979 197.999 398.982 198.505C400.988 199.011 403.005 197.729 403.492 195.642Z" fill="#E7F6FF"/>
<path d="M18.1824 185.353C15.9196 185.302 13.7676 184.323 12.1936 182.628C10.6196 180.934 9.75067 178.661 9.77542 176.304C9.80013 173.946 10.7166 171.693 12.3257 170.035C13.9348 168.377 16.1069 167.447 18.3702 167.447C20.6336 167.447 22.8056 168.377 24.4147 170.035C26.0239 171.693 26.9403 173.946 26.965 176.304C26.9897 178.661 26.1208 180.934 24.5468 182.628C22.9728 184.323 20.8208 185.302 18.558 185.353H18.1824ZM18.1824 171.567H17.988C16.7659 171.595 15.6036 172.123 14.7533 173.038C13.9031 173.953 13.4336 175.18 13.4469 176.454C13.4601 177.727 13.955 178.944 14.824 179.839C15.693 180.735 16.8661 181.237 18.0885 181.237C19.3109 181.237 20.484 180.735 21.3531 179.839C22.2221 178.944 22.7169 177.727 22.7302 176.454C22.7434 175.18 22.274 173.953 21.4237 173.038C20.5735 172.123 19.4111 171.595 18.189 171.567H18.1824Z" fill="#E7F6FF"/>
<path d="M12.0542 200.379C14.1138 200.287 15.7114 198.472 15.6226 196.327C15.5337 194.181 13.7921 192.517 11.7325 192.61C9.67295 192.702 8.07536 194.516 8.16418 196.662C8.25303 198.807 9.99466 200.472 12.0542 200.379Z" fill="#E7F6FF"/>
<path d="M233.605 40.5862C231.553 40.5883 229.569 39.8253 228.01 38.4347C226.451 37.0444 225.422 35.1186 225.109 33.0061C224.795 30.8936 225.218 28.734 226.301 26.9181C227.383 25.1023 229.054 23.7502 231.011 23.1067C232.968 22.4632 235.081 22.5708 236.968 23.4099C238.855 24.2491 240.392 25.7644 241.299 27.6815C242.207 29.5987 242.426 31.791 241.916 33.8616C241.406 35.932 240.202 37.7442 238.521 38.9697C237.08 40.0203 235.364 40.5845 233.605 40.5862ZM233.579 26.8032C232.38 26.802 231.226 27.283 230.359 28.1459C229.492 29.0087 228.978 30.187 228.924 31.435C228.87 32.683 229.281 33.9046 230.07 34.8451C230.86 35.7855 231.967 36.3724 233.161 36.4829C234.356 36.5937 235.545 36.2203 236.482 35.4399C237.418 34.6598 238.03 33.5329 238.189 32.2946C238.347 31.0564 238.041 29.802 237.334 28.793C236.627 27.7841 235.573 27.0983 234.393 26.8787C234.124 26.8288 233.852 26.8036 233.579 26.8032Z" fill="#E7F6FF"/>
<path d="M216.185 41.0725C217.875 39.8483 218.293 37.4284 217.118 35.6674C215.943 33.9065 213.62 33.4713 211.93 34.6955C210.24 35.9193 209.822 38.3393 210.997 40.1002C212.172 41.8612 214.495 42.2967 216.185 41.0725Z" fill="#E7F6FF"/>
<path d="M423.671 86.7127C423.671 82.9392 422.231 79.3198 419.671 76.6514C417.108 73.9826 413.636 72.4835 410.012 72.4835C409.709 72.4835 409.409 72.4835 409.113 72.5144C409.132 72.2055 409.142 71.8932 409.142 71.5775C409.142 69.5553 408.727 67.5562 407.927 65.7138C407.126 63.8712 405.96 62.2276 404.5 60.8925C403.041 59.5575 401.328 58.5615 399.47 57.9712C397.615 57.3805 395.658 57.2093 393.734 57.4684C391.807 57.7278 389.958 58.4115 388.305 59.4741C386.654 60.537 385.238 61.9544 384.154 63.6316C383.07 65.3092 382.342 67.2081 382.015 69.2018C381.693 71.1958 381.778 73.2389 382.272 75.1948C380.622 73.948 378.724 73.1016 376.718 72.7183C374.712 72.3349 372.649 72.4245 370.682 72.9801C368.712 73.5354 366.89 74.5431 365.342 75.9289C363.797 77.3148 362.571 79.0435 361.748 80.9881C360.928 82.933 360.535 85.0444 360.601 87.1678C360.667 89.2912 361.188 91.3721 362.127 93.2586C363.062 95.1449 364.393 96.7885 366.021 98.0686C367.648 99.3491 369.529 100.234 371.529 100.657C372.346 102.911 373.697 104.913 375.459 106.474C377.219 108.035 379.334 109.105 381.597 109.583C383.864 110.061 386.213 109.932 388.417 109.208C390.621 108.483 392.614 107.187 394.208 105.441C395.839 106.724 397.724 107.608 399.727 108.03C401.73 108.453 403.795 108.402 405.775 107.882C407.759 107.362 409.6 106.385 411.172 105.024C412.743 103.664 413.998 101.953 414.852 100.019C417.444 98.9949 419.675 97.1739 421.253 94.7972C422.828 92.4205 423.671 89.6011 423.671 86.7127Z" fill="white"/>
<path d="M63.073 52.5095C63.0747 50.6401 62.7228 48.7885 62.0373 47.0608C61.352 45.3331 60.3462 43.763 59.0782 42.4403C57.8101 41.1176 56.3042 40.0681 54.6464 39.3521C52.9886 38.6359 51.2119 38.2669 49.4174 38.2666C49.1143 38.2666 48.8145 38.2666 48.518 38.2975C48.5378 37.9886 48.5477 37.6763 48.5477 37.3605C48.5473 35.3384 48.1329 33.3392 47.3327 31.4967C46.5321 29.6542 45.3639 28.0106 43.9057 26.6755C42.4476 25.3404 40.7332 24.3445 38.8764 23.7541C37.0196 23.1636 35.0633 22.9923 33.1381 23.2515C31.2128 23.5107 29.3626 24.1945 27.711 25.2572C26.0593 26.3199 24.6441 27.7373 23.5596 29.4146C22.4752 31.0921 21.7464 32.991 21.4219 34.9849C21.0974 36.9789 21.1846 39.022 21.6778 40.9779C20.027 39.7307 18.1291 38.8843 16.1233 38.5013C14.1175 38.118 12.0549 38.2075 10.0867 38.7628C8.11839 39.3185 6.29457 40.3261 4.74896 41.712C3.20333 43.0979 1.97518 44.8266 1.15462 46.7712C0.334057 48.7161 -0.0580918 50.8275 0.00695029 52.9509C0.0719925 55.0739 0.592575 57.1551 1.53049 59.0414C2.46841 60.9279 3.79989 62.5715 5.42716 63.8517C7.05444 65.1318 8.93625 66.0166 10.9345 66.4401C11.7511 68.6922 13.1029 70.6917 14.8633 72.2513C16.6237 73.8111 18.7352 74.8798 21.0002 75.3579C23.2651 75.836 25.6094 75.7073 27.8137 74.9845C30.018 74.2617 32.0102 72.9679 33.6039 71.2244C35.2343 72.5066 37.1198 73.3914 39.1222 73.8135C41.1242 74.236 43.1915 74.1852 45.1725 73.6646C47.1531 73.1443 48.9967 72.1678 50.5672 70.807C52.1377 69.4462 53.3952 67.7361 54.2471 65.8018C56.8386 64.7801 59.0706 62.9614 60.647 60.5875C62.2231 58.2136 63.0694 55.3962 63.073 52.5095Z" fill="white"/>
<path d="M314.353 254.976H117.837V250.514H314.353C314.921 250.514 315.466 250.75 315.867 251.168C316.269 251.586 316.495 252.154 316.495 252.745C316.495 253.337 316.269 253.904 315.867 254.323C315.466 254.741 314.921 254.976 314.353 254.976Z" fill="#426572"/>
<path d="M109.048 254.976H97.0325C96.4646 254.976 95.92 254.741 95.5184 254.323C95.1168 253.904 94.8911 253.337 94.8911 252.745C94.8911 252.154 95.1168 251.586 95.5184 251.168C95.92 250.75 96.4646 250.514 97.0325 250.514H109.048C109.615 250.514 110.16 250.75 110.562 251.168C110.963 251.586 111.189 252.154 111.189 252.745C111.189 253.337 110.963 253.904 110.562 254.323C110.16 254.741 109.615 254.976 109.048 254.976Z" fill="#426572"/>
<path d="M89.2347 254.976H85.4065C84.8386 254.976 84.294 254.741 83.8924 254.323C83.4908 253.904 83.2651 253.337 83.2651 252.745C83.2651 252.154 83.4908 251.586 83.8924 251.168C84.294 250.75 84.8386 250.514 85.4065 250.514H89.2347C89.8027 250.514 90.3473 250.75 90.7489 251.168C91.1505 251.586 91.3761 252.154 91.3761 252.745C91.3761 253.337 91.1505 253.904 90.7489 254.323C90.3473 254.741 89.8027 254.976 89.2347 254.976Z" fill="#426572"/>
<path d="M383.26 254.976H322.859V250.514H383.26C383.827 250.514 384.374 250.75 384.776 251.168C385.178 251.586 385.402 252.154 385.402 252.745C385.402 253.337 385.178 253.904 384.776 254.323C384.374 254.741 383.827 254.976 383.26 254.976Z" fill="#426572"/>
<path d="M74.4557 254.976H14.0513V250.514H74.4557C75.0236 250.514 75.5682 250.75 75.9698 251.168C76.3714 251.586 76.5971 252.154 76.5971 252.745C76.5971 253.337 76.3714 253.904 75.9698 254.323C75.5682 254.741 75.0236 254.976 74.4557 254.976Z" fill="#426572"/>
<path d="M252.72 73.6065V232.166C252.72 235.951 251.519 239.628 249.304 242.627C247.089 245.626 243.985 247.779 240.475 248.75C239.1 249.128 237.683 249.318 236.261 249.316H164.418C160.049 249.316 155.859 247.508 152.771 244.29C149.681 241.072 147.946 236.707 147.946 232.156V73.5962C147.941 70.4267 148.783 67.318 150.377 64.618C150.585 64.2748 150.805 63.9316 151.036 63.5884C152.85 60.956 155.343 58.9119 158.225 57.6922C160.186 56.8613 162.284 56.436 164.402 56.4395H236.254C238.418 56.4405 240.559 56.8853 242.558 57.7484C244.556 58.6116 246.371 59.8763 247.9 61.4705C249.429 63.0647 250.642 64.9567 251.469 67.0393C252.296 69.1215 252.721 71.353 252.72 73.6065Z" fill="#E8EDF7"/>
<path d="M234.281 252.079H162.461C157.568 252.079 152.876 250.054 149.416 246.45C145.956 242.845 144.012 237.957 144.012 232.859V74.2995C144.007 69.4445 145.774 64.7691 148.954 61.22C149.165 60.9797 149.402 60.7258 149.695 60.4375C153.125 56.9969 157.703 55.0784 162.465 55.0869H234.284C239.177 55.0869 243.87 57.1118 247.33 60.7162C250.79 64.3205 252.733 69.2091 252.733 74.3063V232.866C252.736 235.391 252.261 237.891 251.334 240.224C250.408 242.557 249.049 244.677 247.336 246.463C245.622 248.248 243.587 249.663 241.347 250.628C239.108 251.593 236.708 252.088 234.284 252.086L234.281 252.079ZM162.461 59.1985C158.72 59.1913 155.122 60.7 152.43 63.4062C152.202 63.6327 152.021 63.8215 151.86 64.0068C149.356 66.7998 147.966 70.481 147.972 74.3029V232.863C147.972 236.868 149.5 240.709 152.218 243.541C154.936 246.373 158.623 247.964 162.468 247.964H234.288C236.192 247.966 238.078 247.578 239.838 246.82C241.598 246.062 243.197 244.95 244.543 243.547C245.89 242.144 246.958 240.478 247.685 238.645C248.413 236.811 248.786 234.846 248.783 232.863V74.3029C248.783 70.2977 247.256 66.4569 244.538 63.6248C241.819 60.793 238.132 59.202 234.288 59.202L162.461 59.1985Z" fill="#426572"/>
<path d="M231.187 67.4354H166.2C160.766 67.4354 156.36 72.0254 156.36 77.6869V230.158C156.36 235.82 160.766 240.41 166.2 240.41H231.187C236.622 240.41 241.028 235.82 241.028 230.158V77.6869C241.028 72.0254 236.622 67.4354 231.187 67.4354Z" fill="#C1CEDE"/>
<path d="M167.689 73.9563H229.705C231.176 73.9563 232.587 74.5651 233.627 75.6493C234.668 76.7332 235.253 78.2031 235.253 79.7358V225.721C235.253 227.946 234.404 230.081 232.893 231.654C231.383 233.228 229.334 234.112 227.198 234.112H170.203C168.066 234.112 166.018 233.228 164.507 231.654C162.997 230.081 162.148 227.946 162.148 225.721V79.7358C162.148 78.2041 162.731 76.7352 163.77 75.6517C164.81 74.5679 166.219 73.9584 167.689 73.9563Z" fill="#F1F6FE"/>
<path d="M231.184 241.783H166.2C163.067 241.779 160.063 240.481 157.848 238.173C155.632 235.865 154.386 232.736 154.383 229.472V77.0004C154.386 73.7365 155.632 70.6075 157.848 68.2995C160.063 65.9915 163.067 64.6935 166.2 64.6897H231.184C234.317 64.6935 237.32 65.9915 239.536 68.2995C241.752 70.6075 242.997 73.7365 243.001 77.0004V229.468C242.998 232.733 241.753 235.863 239.537 238.172C237.322 240.48 234.318 241.779 231.184 241.783ZM166.2 68.8081C164.115 68.8109 162.117 69.6751 160.642 71.2106C159.168 72.7464 158.339 74.8286 158.336 77.0004V229.468C158.339 231.641 159.168 233.722 160.642 235.258C162.117 236.794 164.115 237.658 166.2 237.661H231.184C233.269 237.658 235.267 236.794 236.742 235.258C238.216 233.722 239.045 231.641 239.048 229.468V77.0004C239.045 74.8286 238.216 72.7464 236.742 71.2106C235.267 69.6751 233.269 68.8109 231.184 68.8081H166.2Z" fill="#426572"/>
<path d="M221.989 121.661H179.052C176.868 121.661 175.099 123.506 175.099 125.78V156.668C175.099 158.943 176.868 160.787 179.052 160.787H221.989C224.172 160.787 225.942 158.943 225.942 156.668V125.78C225.942 123.506 224.172 121.661 221.989 121.661Z" fill="#87D6FE"/>
<path d="M221.9 163.532H178.963C177.39 163.532 175.882 162.882 174.77 161.723C173.658 160.565 173.033 158.993 173.033 157.355V126.466C173.033 124.828 173.658 123.257 174.77 122.098C175.882 120.94 177.39 120.289 178.963 120.289H221.9C223.473 120.289 224.981 120.94 226.094 122.098C227.205 123.257 227.83 124.828 227.83 126.466V157.355C227.83 158.993 227.205 160.565 226.094 161.723C224.981 162.882 223.473 163.532 221.9 163.532ZM178.963 124.407C178.439 124.407 177.936 124.624 177.565 125.01C177.195 125.397 176.987 125.92 176.987 126.466V157.355C176.987 157.901 177.195 158.425 177.565 158.811C177.936 159.197 178.439 159.414 178.963 159.414H221.9C222.424 159.414 222.927 159.197 223.298 158.811C223.669 158.425 223.877 157.901 223.877 157.355V126.466C223.877 125.92 223.669 125.397 223.298 125.01C222.927 124.624 222.424 124.407 221.9 124.407H178.963Z" fill="#426572"/>
<path d="M221.064 168.337H180.426C178.242 168.337 176.473 170.181 176.473 172.456V185.841C176.473 188.115 178.242 189.959 180.426 189.959H221.064C223.247 189.959 225.017 188.115 225.017 185.841V172.456C225.017 170.181 223.247 168.337 221.064 168.337Z" fill="#A8EF9E"/>
<path d="M220.45 192.361H179.816C178.244 192.361 176.735 191.711 175.623 190.552C174.511 189.394 173.886 187.822 173.886 186.184V172.799C173.886 171.16 174.511 169.589 175.623 168.43C176.735 167.272 178.244 166.621 179.816 166.621H220.45C222.023 166.621 223.531 167.272 224.644 168.43C225.756 169.589 226.381 171.16 226.381 172.799V186.184C226.381 187.822 225.756 189.394 224.644 190.552C223.531 191.711 222.023 192.361 220.45 192.361ZM179.813 170.74C179.289 170.74 178.786 170.956 178.415 171.343C178.045 171.729 177.836 172.253 177.836 172.799V186.184C177.836 186.73 178.045 187.254 178.415 187.64C178.786 188.026 179.289 188.243 179.813 188.243H220.45C220.975 188.243 221.477 188.026 221.848 187.64C222.219 187.254 222.427 186.73 222.427 186.184V172.799C222.427 172.253 222.219 171.729 221.848 171.343C221.477 170.956 220.975 170.74 220.45 170.74H179.813Z" fill="#426572"/>
<path d="M221.064 197.509H180.426C178.242 197.509 176.473 199.353 176.473 201.628V215.013C176.473 217.288 178.242 219.131 180.426 219.131H221.064C223.247 219.131 225.017 217.288 225.017 215.013V201.628C225.017 199.353 223.247 197.509 221.064 197.509Z" fill="#A8EF9E"/>
<path d="M220.45 221.534H179.816C178.244 221.534 176.735 220.883 175.623 219.724C174.511 218.566 173.886 216.994 173.886 215.356V201.971C173.886 200.333 174.511 198.761 175.623 197.603C176.735 196.444 178.244 195.793 179.816 195.793H220.45C222.023 195.793 223.531 196.444 224.644 197.603C225.756 198.761 226.381 200.333 226.381 201.971V215.356C226.381 216.994 225.756 218.566 224.644 219.724C223.531 220.883 222.023 221.534 220.45 221.534ZM179.813 199.912C179.289 199.912 178.786 200.129 178.415 200.515C178.045 200.901 177.836 201.425 177.836 201.971V215.356C177.836 215.902 178.045 216.426 178.415 216.812C178.786 217.198 179.289 217.415 179.813 217.415H220.45C220.975 217.415 221.477 217.198 221.848 216.812C222.219 216.426 222.427 215.902 222.427 215.356V201.971C222.427 201.425 222.219 200.901 221.848 200.515C221.477 200.129 220.975 199.912 220.45 199.912H179.813Z" fill="#426572"/>
<path d="M236.854 78.978V82.9111C236.854 80.9136 235.299 78.6588 233.381 78.6588L207.684 76.6304C205.767 76.6304 206.159 79.0123 206.159 81.0097V78.9814C206.159 78.0221 206.525 77.102 207.176 76.4235C207.827 75.7453 208.71 75.364 209.631 75.364H233.352C233.81 75.3599 234.264 75.4505 234.689 75.6304C235.113 75.8098 235.499 76.0755 235.825 76.4115C236.15 76.7475 236.409 77.147 236.586 77.5876C236.762 78.028 236.853 78.5006 236.854 78.978Z" fill="#307FC3"/>
<path opacity="0.5" d="M236.732 78.5932V84.7159L206.564 76.7193C206.874 76.1884 207.309 75.7498 207.828 75.445C208.348 75.1402 208.934 74.9796 209.529 74.9793H233.25C233.706 74.9779 234.159 75.0702 234.581 75.2514C235.003 75.4323 235.387 75.6983 235.71 76.0339C236.034 76.3696 236.291 76.7684 236.466 77.2073C236.641 77.6466 236.732 78.1175 236.732 78.5932Z" fill="#4DA7DF"/>
<path opacity="0.1" d="M270.886 98.6322C270.37 98.8821 269.808 99.0108 269.239 99.0097H270.886V98.6322Z" fill="#606060"/>
<path opacity="0.2" d="M176.954 59.5417V101.498C176.954 102.591 177.37 103.638 178.111 104.411C178.853 105.183 179.858 105.617 180.907 105.617H252.559V98.0662H270.886V50.2752C270.886 49.1831 270.469 48.1353 269.728 47.3631C268.986 46.5909 267.981 46.1567 266.933 46.1567H186.178V59.5417H176.954Z" fill="#606060"/>
<path d="M276.157 38.6063H190.171C187.988 38.6063 186.218 40.4504 186.218 42.7248V93.1756C186.218 95.4504 187.988 97.2941 190.171 97.2941H276.157C278.34 97.2941 280.111 95.4504 280.111 93.1756V42.7248C280.111 40.4504 278.34 38.6063 276.157 38.6063Z" fill="white"/>
<path d="M247.824 92.3176H186.876V96.0929H247.824V92.3176Z" fill="#DEE6F1"/>
<path d="M279.412 93.6046V43.1537C279.412 42.0616 278.995 41.0138 278.254 40.2416C277.513 39.4694 276.507 39.0353 275.459 39.0353H247.495V97.723H275.459C276.507 97.723 277.513 97.2892 278.254 96.517C278.995 95.7445 279.412 94.697 279.412 93.6046Z" fill="#E8837E"/>
<path d="M270.886 98.6325C270.37 98.8823 269.808 99.0114 269.239 99.01H274.839C275.38 99.0104 275.915 98.8954 276.412 98.6716C276.908 98.4479 277.355 98.1204 277.725 97.7093C278.041 97.3571 278.296 96.9508 278.48 96.5081C278.54 96.3612 278.592 96.2112 278.638 96.0585C278.745 95.6799 278.8 95.2866 278.799 94.8916V44.4407C278.799 43.3486 278.383 42.3008 277.641 41.5286C276.9 40.7564 275.894 40.3223 274.846 40.3223H269.245C270.294 40.3223 271.299 40.7564 272.041 41.5286C272.782 42.3008 273.199 43.3486 273.199 44.4407V94.8916C273.2 95.7547 272.938 96.5959 272.451 97.294C272.351 97.445 272.241 97.5885 272.121 97.723C272.009 97.8438 271.892 97.9581 271.769 98.0662C271.5 98.2955 271.203 98.4859 270.886 98.6325Z" fill="#D66765"/>
<path d="M276.117 100.126H190.131C189.185 100.125 188.253 99.888 187.413 99.4353C186.573 98.983 185.849 98.3275 185.302 97.524C184.584 96.4817 184.199 95.2308 184.201 93.9479V43.497C184.201 43.2042 184.22 42.9118 184.26 42.6218C184.467 41.1522 185.173 39.8086 186.251 38.8353C187.328 37.8623 188.705 37.3241 190.131 37.3193H276.117C276.708 37.3187 277.296 37.411 277.86 37.5939H277.972L278.302 37.7621C279.4 38.2244 280.341 39.0168 281.006 40.0379C281.67 41.0592 282.028 42.2632 282.034 43.497V93.9479C282.033 95.1429 281.7 96.3119 281.074 97.3133C280.449 98.3148 279.557 99.1055 278.509 99.5901C277.757 99.943 276.942 100.125 276.117 100.126ZM190.131 41.4378C189.655 41.4381 189.194 41.6176 188.834 41.9437C188.474 42.27 188.24 42.7203 188.174 43.2121C188.161 43.3065 188.154 43.4019 188.155 43.497V93.9479C188.154 94.3728 188.282 94.787 188.52 95.1319C188.702 95.4013 188.943 95.6217 189.223 95.7737C189.504 95.9261 189.815 96.0061 190.131 96.0071H276.117C276.39 96.0081 276.659 95.9484 276.908 95.8321C277.26 95.6721 277.56 95.4086 277.77 95.0739C277.981 94.7393 278.093 94.3481 278.094 93.9479V43.497C278.094 43.1359 278.002 42.7814 277.828 42.4688C277.655 42.1561 277.406 41.8963 277.106 41.7158L276.776 41.551C276.565 41.4731 276.342 41.4347 276.117 41.4378H190.131Z" fill="#426572"/>
<path d="M250.131 39.9791H246.177V97.6373H250.131V39.9791Z" fill="#426572"/>
<path d="M200.127 78.9364C200.138 78.8297 200.156 78.7243 200.183 78.6207L205.685 59.9607C205.755 59.7606 205.867 59.5791 206.012 59.4291C206.157 59.2791 206.332 59.1641 206.525 59.0924C207.007 58.8793 207.527 58.7743 208.05 58.7835C208.581 58.7753 209.107 58.8927 209.589 59.1267C209.79 59.2125 209.971 59.3433 210.118 59.5097C210.266 59.6765 210.376 59.8749 210.442 60.0911L215.937 78.7511C215.964 78.8475 215.982 78.9464 215.993 79.0462C215.993 79.4811 215.737 79.8562 215.226 80.1719C214.755 80.4753 214.214 80.639 213.661 80.6456C212.958 80.6456 212.541 80.3882 212.409 79.8734L211.325 75.9265H205.224L204.163 79.8734C204.007 80.3926 203.537 80.6524 202.753 80.6524C202.13 80.6517 201.518 80.4825 200.977 80.1616C200.41 79.8346 200.127 79.4262 200.127 78.9364ZM206.037 72.9063H210.962L208.485 63.7977L206.037 72.9063Z" fill="#426572"/>
<path d="M218.395 79.4644V60.1523C218.401 59.9859 218.445 59.8235 218.524 59.6787C218.603 59.5342 218.715 59.4117 218.85 59.3218C219.192 59.0774 219.601 58.9569 220.016 58.9785H225.056C227.088 58.9785 228.711 59.5218 229.926 60.6088C231.14 61.6957 231.748 63.4117 231.748 65.7568V73.8564C231.748 76.2108 231.14 77.9268 229.926 79.0045C228.711 80.0821 227.089 80.6312 225.06 80.6518H220.019C219.605 80.6735 219.195 80.553 218.853 80.3086C218.716 80.218 218.602 80.0934 218.523 79.9462C218.443 79.799 218.399 79.6336 218.395 79.4644ZM222.098 77.2678H225.063C227.057 77.2678 228.054 76.1308 228.054 73.8564V65.7568C228.054 63.4824 227.057 62.3454 225.063 62.3454H222.098V77.2678Z" fill="#426572"/>
</g>
<defs>
<linearGradient id="paint0_linear_118_728" x1="0.435063" y1="127.393" x2="413.326" y2="127.393" gradientUnits="userSpaceOnUse">
<stop stop-color="#C5E9FA"/>
<stop offset="1" stop-color="#C4F4EA"/>
</linearGradient>
</defs>
</svg>
