<svg width="250" height="159" viewBox="0 0 250 159" fill="none" xmlns="http://www.w3.org/2000/svg">
<mask id="mask0_118_773" style="mask-type:luminance" maskUnits="userSpaceOnUse" x="0" y="0" width="250" height="159">
<path d="M249.814 0H0V158.283H249.814V0Z" fill="white"/>
</mask>
<g mask="url(#mask0_118_773)">
<path d="M236.632 101.235C227.803 124.095 211.204 144.122 188.149 152.923C185.15 154.066 182.088 155.036 178.978 155.827C162.529 160.021 144.534 158.562 129.371 150.919C122.935 147.673 117.067 143.384 110.608 140.184C104.149 136.985 96.7736 134.893 89.7437 136.472C83.6909 137.832 78.584 141.729 73.4422 145.2C61.321 153.384 46.7464 159.86 32.3933 157.049C25.7888 155.757 19.2853 152.179 16.2181 146.198C9.43874 132.976 22.2243 117.255 19.6349 102.632C17.978 93.2728 10.41 86.2643 5.70525 78.0048C-2.34447 63.877 -1.39071 45.1104 8.04791 31.8704C17.4865 18.6302 34.9147 11.612 50.8937 14.6151C70.3789 18.2767 85.1109 34.7705 104.058 40.598C115.907 44.2441 128.772 43.1563 140.089 38.3544C158.374 30.5941 183.495 18.6924 204.072 20.631C215.014 21.6625 225.746 26.5188 232.968 34.8113C242.098 45.2794 244.835 60.1415 243.312 73.9449C242.267 83.2909 240.022 92.4632 236.632 101.235Z" fill="url(#paint0_linear_118_773)"/>
<path d="M242.506 119.316C242.1 119.316 241.696 119.267 241.301 119.17C240.054 118.864 238.972 118.093 238.275 117.016C237.578 115.938 237.317 114.634 237.549 113.372C237.778 112.109 238.483 110.982 239.516 110.22C240.55 109.459 241.836 109.121 243.11 109.275C244.384 109.429 245.552 110.064 246.373 111.05C247.197 112.036 247.611 113.298 247.535 114.58C247.457 115.861 246.894 117.065 245.96 117.945C245.025 118.825 243.79 119.316 242.506 119.316ZM242.492 111.511C241.824 111.513 241.179 111.76 240.68 112.205C240.181 112.65 239.862 113.262 239.782 113.926C239.705 114.59 239.872 115.26 240.253 115.809C240.633 116.359 241.204 116.749 241.853 116.907C242.203 116.992 242.564 117.007 242.92 116.952C243.275 116.896 243.615 116.772 243.922 116.585C244.229 116.398 244.495 116.152 244.707 115.862C244.918 115.572 245.072 115.243 245.155 114.894C245.241 114.545 245.256 114.183 245.2 113.828C245.146 113.473 245.021 113.132 244.833 112.825C244.646 112.519 244.402 112.252 244.11 112.04C243.821 111.828 243.493 111.675 243.143 111.591C242.929 111.538 242.712 111.51 242.492 111.509V111.511Z" fill="#E7F6FF"/>
<path d="M237.908 124.659C238.193 123.478 237.469 122.288 236.288 122.002C235.105 121.716 233.916 122.441 233.629 123.622C233.343 124.803 234.068 125.993 235.251 126.28C236.432 126.566 237.62 125.841 237.908 124.659Z" fill="#E7F6FF"/>
<path d="M10.7209 118.836C9.38672 118.807 8.11786 118.252 7.18981 117.293C6.26174 116.335 5.74939 115.048 5.76398 113.714C5.77854 112.379 6.31889 111.104 7.26769 110.166C8.21646 109.228 9.49713 108.701 10.8317 108.701C12.1662 108.701 13.4468 109.228 14.3956 110.166C15.3444 111.104 15.8848 112.379 15.8993 113.714C15.9139 115.048 15.4016 116.335 14.4735 117.293C13.5454 118.252 12.2766 118.807 10.9424 118.836H10.7209ZM10.7209 111.033H10.6063C9.88573 111.048 9.20038 111.348 8.69906 111.866C8.19776 112.383 7.92095 113.078 7.92876 113.799C7.93655 114.52 8.22833 115.208 8.74074 115.715C9.25314 116.222 9.9448 116.506 10.6656 116.506C11.3863 116.506 12.078 116.222 12.5904 115.715C13.1028 115.208 13.3946 114.52 13.4024 113.799C13.4102 113.078 13.1334 112.383 12.6321 111.866C12.1308 111.348 11.4454 111.048 10.7248 111.033H10.7209Z" fill="#E7F6FF"/>
<path d="M7.10726 127.341C8.32163 127.289 9.26361 126.262 9.21122 125.048C9.15883 123.833 8.13192 122.891 6.91755 122.944C5.7032 122.996 4.76122 124.023 4.81361 125.237C4.86598 126.452 5.89288 127.394 7.10726 127.341Z" fill="#E7F6FF"/>
<path d="M137.739 36.9073C136.529 36.9112 135.358 36.4819 134.437 35.6971C133.517 34.9121 132.908 33.8238 132.72 32.6285C132.532 31.4335 132.779 30.2107 133.415 29.1816C134.05 28.1524 135.034 27.3847 136.187 27.0178C137.339 26.6509 138.585 26.7086 139.699 27.1808C140.813 27.6528 141.721 28.5081 142.259 29.5918C142.797 30.6753 142.929 31.9158 142.631 33.0883C142.334 34.261 141.627 35.2884 140.637 35.9846C139.789 36.5819 138.777 36.904 137.739 36.9073ZM137.723 29.0984C137.016 29.0978 136.336 29.37 135.825 29.8583C135.314 30.3467 135.011 31.0137 134.979 31.72C134.947 32.4263 135.189 33.1178 135.655 33.6501C136.12 34.1823 136.773 34.5145 137.477 34.5772C138.182 34.6398 138.883 34.4285 139.435 33.9867C139.987 33.5452 140.348 32.9075 140.441 32.2066C140.535 31.5058 140.355 30.7958 139.938 30.2247C139.521 29.6536 138.899 29.2655 138.203 29.1412C138.045 29.113 137.884 29.0986 137.723 29.0984Z" fill="#E7F6FF"/>
<path d="M127.407 36.6231C128.402 35.9251 128.643 34.5528 127.945 33.5576C127.248 32.5623 125.875 32.3214 124.88 33.0191C123.885 33.7171 123.644 35.0895 124.342 36.0848C125.039 37.0799 126.412 37.321 127.407 36.6231Z" fill="#E7F6FF"/>
<path d="M249.806 63.0064C249.806 60.8704 248.957 58.8218 247.448 57.3115C245.936 55.8012 243.889 54.9527 241.752 54.9527C241.573 54.9527 241.397 54.9527 241.222 54.9702C241.233 54.7954 241.239 54.6186 241.239 54.4399C241.239 53.2952 240.995 52.1637 240.522 51.121C240.05 50.078 239.363 49.1478 238.502 48.3921C237.642 47.6365 236.632 47.0728 235.536 46.7387C234.442 46.4046 233.289 46.3075 232.154 46.4543C231.018 46.601 229.928 46.9879 228.953 47.5895C227.98 48.1909 227.144 48.9932 226.505 49.9425C225.866 50.8919 225.437 51.9667 225.245 53.0953C225.054 54.2237 225.105 55.3801 225.396 56.4873C224.423 55.781 223.302 55.302 222.119 55.0852C220.936 54.8684 219.72 54.9193 218.559 55.2342C217.399 55.5491 216.323 56.12 215.412 56.9052C214.501 57.6901 213.776 58.6693 213.293 59.7707C212.811 60.8721 212.58 62.0677 212.618 63.27C212.657 64.4722 212.966 65.6501 213.52 66.7177C214.075 67.7851 214.86 68.715 215.822 69.4388C216.781 70.1627 217.892 70.6622 219.071 70.9007C219.553 72.1763 220.35 73.3092 221.389 74.1928C222.426 75.0763 223.673 75.6818 225.01 75.9526C226.344 76.2231 227.729 76.1499 229.029 75.74C230.328 75.33 231.503 74.5967 232.444 73.6085C233.405 74.3341 234.516 74.8348 235.697 75.074C236.878 75.3129 238.096 75.2841 239.264 74.9897C240.433 74.6952 241.519 74.1425 242.446 73.3723C243.372 72.6021 244.112 71.634 244.615 70.5394C246.142 69.9582 247.457 68.9265 248.384 67.581C249.31 66.2356 249.806 64.6402 249.806 63.0064Z" fill="white"/>
<path d="M37.1892 43.6396C37.1892 41.504 36.341 39.4558 34.831 37.9455C33.3211 36.4352 31.2732 35.5865 29.1376 35.586C28.9589 35.586 28.7821 35.586 28.6073 35.6034C28.6189 35.4286 28.6248 35.2518 28.6248 35.0731C28.6246 33.9286 28.3804 32.7971 27.9084 31.7544C27.4365 30.7114 26.7477 29.7812 25.888 29.0255C25.0282 28.2699 24.0171 27.7062 22.9223 27.3721C21.8276 27.0378 20.6741 26.9409 19.5389 27.0875C18.4038 27.2344 17.3129 27.6213 16.339 28.2227C15.3651 28.8243 14.5307 29.6266 13.8913 30.5759C13.2519 31.5254 12.8222 32.6001 12.6308 33.7285C12.4395 34.8571 12.4909 36.0135 12.7817 37.1205C11.8084 36.4148 10.6893 35.9358 9.50667 35.7188C8.32404 35.5018 7.10784 35.5525 5.94731 35.867C4.7868 36.1813 3.71141 36.7517 2.80009 37.536C1.88876 38.3204 1.16461 39.2989 0.680789 40.3995C0.196969 41.5003 -0.0342523 42.6953 0.00409804 43.8971C0.0424484 45.099 0.349397 46.2767 0.902415 47.3445C1.45543 48.4121 2.24049 49.3424 3.19997 50.0669C4.15945 50.7917 5.26901 51.2923 6.44721 51.532C6.92893 52.8066 7.72614 53.9381 8.76421 54.8206C9.80228 55.7031 11.0473 56.3078 12.3827 56.5782C13.7182 56.8486 15.1004 56.7757 16.3999 56.3665C17.6996 55.9572 18.8741 55.2248 19.8136 54.2379C20.7749 54.9636 21.8868 55.4644 23.0673 55.7033C24.2477 55.9424 25.4668 55.9137 26.6347 55.6192C27.8025 55.3247 28.8895 54.7719 29.8155 54.0017C30.7415 53.2316 31.483 52.2635 31.9853 51.1687C33.5142 50.59 34.8309 49.5599 35.7603 48.2151C36.69 46.8703 37.1883 45.2744 37.1892 43.6396Z" fill="white"/>
<path d="M185.35 158.242H69.4795V155.717H185.35C185.685 155.717 186.006 155.85 186.243 156.086C186.479 156.323 186.612 156.644 186.612 156.979C186.612 157.314 186.479 157.635 186.243 157.872C186.006 158.109 185.685 158.242 185.35 158.242Z" fill="#426572"/>
<path d="M64.2966 158.242H57.2123C56.8774 158.242 56.5563 158.109 56.3196 157.872C56.0828 157.635 55.9497 157.314 55.9497 156.979C55.9497 156.644 56.0828 156.323 56.3196 156.086C56.5563 155.85 56.8774 155.717 57.2123 155.717H64.2966C64.6315 155.717 64.9526 155.85 65.1894 156.086C65.4262 156.323 65.5593 156.644 65.5593 156.979C65.5593 157.314 65.4262 157.635 65.1894 157.872C64.9526 158.109 64.6315 158.242 64.2966 158.242Z" fill="#426572"/>
<path d="M52.6145 158.242H50.3573C50.0225 158.242 49.7014 158.109 49.4646 157.872C49.2278 157.635 49.0947 157.314 49.0947 156.979C49.0947 156.644 49.2278 156.323 49.4646 156.086C49.7014 155.85 50.0225 155.717 50.3573 155.717H52.6145C52.9494 155.717 53.2705 155.85 53.5073 156.086C53.7441 156.323 53.8772 156.644 53.8772 156.979C53.8772 157.314 53.7441 157.635 53.5073 157.872C53.2705 158.109 52.9494 158.242 52.6145 158.242Z" fill="#426572"/>
<path d="M225.979 158.242H190.365V155.717H225.979C226.313 155.717 226.636 155.85 226.873 156.086C227.11 156.323 227.242 156.644 227.242 156.979C227.242 157.314 227.11 157.635 226.873 157.872C226.636 158.109 226.313 158.242 225.979 158.242Z" fill="#426572"/>
<path d="M43.9005 158.242H8.28467V155.717H43.9005C44.2353 155.717 44.5564 155.85 44.7932 156.086C45.03 156.323 45.1631 156.644 45.1631 156.979C45.1631 157.314 45.03 157.635 44.7932 157.872C44.5564 158.109 44.2353 158.242 43.9005 158.242Z" fill="#426572"/>
<path d="M192.669 23.9956V157.311H50.2139V23.9956C50.2205 21.5411 51.1983 19.189 52.9338 17.4532C54.6692 15.7174 57.0212 14.739 59.4757 14.7318H183.407C185.862 14.739 188.214 15.7174 189.949 17.4532C191.685 19.189 192.663 21.5411 192.669 23.9956Z" fill="white"/>
<path d="M183.392 36.7148H57.937V157.311H183.392V36.7148Z" fill="white"/>
<path opacity="0.4" d="M191.892 21.3535V23.2319C190.748 20.6639 187.195 18.7797 183.018 18.7797H59.0869C53.9917 18.7797 49.825 21.5846 49.825 25.0151V111.08H49.4365V21.3535C49.4365 17.925 53.6032 15.118 58.6984 15.118H182.63C187.725 15.12 191.892 17.925 191.892 21.3535Z" fill="#C1CEDE"/>
<path d="M193.057 158.283H48.271V23.8014C48.2741 21.0366 49.3736 18.386 51.3283 16.4308C53.2832 14.4757 55.9336 13.3757 58.6983 13.3721H182.63C185.395 13.3757 188.045 14.4757 190 16.4308C191.955 18.386 193.054 21.0366 193.057 23.8014V70.2874H190.726V23.8014C190.724 21.6545 189.871 19.5963 188.353 18.078C186.835 16.5598 184.777 15.7057 182.63 15.7031H58.6983C56.5515 15.7057 54.4934 16.5598 52.9755 18.078C51.4577 19.5963 50.6041 21.6545 50.602 23.8014V155.952H190.726V97.4824H193.057V158.283Z" fill="#426572"/>
<path d="M59.8001 47.5382H182.879V39.3448L182.683 36.2717H72.6342H58.4423L58.2461 39.3448V47.5382H59.8001Z" fill="#E2F2FF"/>
<path d="M175.884 40.7881H63.9008C63.2035 40.7881 62.6382 41.3534 62.6382 42.0507V42.6335C62.6382 43.3306 63.2035 43.8961 63.9008 43.8961H175.884C176.581 43.8961 177.147 43.3306 177.147 42.6335V42.0507C177.147 41.3534 176.581 40.7881 175.884 40.7881Z" fill="#CADCE8"/>
<path d="M184.557 158.088H56.7715V35.1592H184.557V158.088ZM59.1025 155.757H182.226V37.4902H59.1025V155.757Z" fill="#426572"/>
<path d="M166.208 119.53H137.77V148.473H166.208V119.53Z" fill="#DDE4ED"/>
<path d="M135.375 119.53H78.4985V148.473H135.375V119.53Z" fill="#DDE4ED"/>
<path d="M166.175 59.9922H141.185V70.8702H166.175V59.9922Z" fill="#E8837E"/>
<path d="M166.175 72.8438H141.185V83.7218H166.175V72.8438Z" fill="#87D6FE"/>
<path d="M166.175 98.5509H141.185V109.429H166.175V98.5509Z" fill="#FBC907"/>
<path d="M166.175 85.6969H141.185V96.5749H166.175V85.6969Z" fill="#A8EF9E"/>
<path opacity="0.2" d="M71.3054 36.0056C72.6731 33.4566 73.5152 30.6592 73.7823 27.7787C74.0492 24.8983 73.7355 21.9937 72.8598 19.2368C71.9839 16.4798 70.5637 13.9266 68.6834 11.7284C66.8031 9.53016 64.5008 7.7316 61.9128 6.43917C59.325 5.14675 56.5039 4.38678 53.617 4.20423C50.73 4.02169 47.8359 4.42029 45.1057 5.37645C42.3755 6.33261 39.865 7.82688 37.7228 9.77076C35.5806 11.7146 33.8501 14.0686 32.6341 16.6933C30.9474 19.8605 30.0754 23.3978 30.0966 26.9859C30.1177 30.5741 31.0315 34.1007 32.7555 37.248C34.4794 40.395 36.9594 43.0636 39.9719 45.0133C42.9843 46.963 46.4346 48.1324 50.0117 48.4162C49.3876 48.5638 48.7535 48.6837 48.11 48.7756C51.4961 49.2639 54.9499 48.9417 58.1873 47.8354C61.4247 46.7291 64.3534 44.8704 66.7327 42.4119C68.6352 40.5736 70.1849 38.4022 71.3054 36.0056Z" fill="#606060"/>
<path opacity="0.2" d="M197.657 7.55962C194.864 6.83148 191.954 6.66986 189.098 7.08429C186.242 7.49871 183.497 8.48082 181.026 9.97268C178.556 11.4645 176.409 13.436 174.712 15.7707C173.015 18.1055 171.803 20.7564 171.147 23.567C170.491 26.3776 170.404 29.2912 170.892 32.136C171.379 34.9808 172.432 37.6989 173.987 40.1305C175.541 42.5622 177.567 44.6579 179.945 46.2941C182.323 47.9303 185.004 49.0738 187.83 49.6575C191.302 50.5649 194.946 50.5938 198.431 49.7422C201.917 48.8905 205.136 47.1845 207.799 44.7784C210.46 42.3722 212.483 39.3413 213.681 35.959C214.88 32.5767 215.22 28.9491 214.666 25.4035C214.953 25.9759 215.218 26.5645 215.457 27.1692C215.148 23.7621 214.033 20.4771 212.207 17.584C210.381 14.6911 207.894 12.2727 204.952 10.5278C202.722 9.10127 200.249 8.09527 197.657 7.55962Z" fill="#606060"/>
<path opacity="0.2" d="M72.6146 122.538C73.8769 120.175 74.6525 117.583 74.8961 114.916C75.1397 112.247 74.846 109.558 74.0325 107.006C73.2189 104.453 71.9019 102.09 70.1597 100.055C68.4173 98.0198 66.2846 96.3549 63.8879 95.1581C61.4911 93.9614 58.8788 93.2572 56.2053 93.087C53.5317 92.9171 50.8512 93.2844 48.3221 94.1678C45.7929 95.0513 43.4666 96.4326 41.4804 98.2302C39.4942 100.028 37.8885 102.205 36.758 104.634C35.1939 107.571 34.385 110.85 34.4046 114.177C34.4241 117.504 35.2712 120.774 36.8695 123.692C38.4678 126.609 40.7673 129.084 43.5604 130.891C46.3536 132.699 49.5525 133.783 52.8691 134.046C52.2902 134.182 51.703 134.293 51.1072 134.38C54.2473 134.833 57.4501 134.534 60.4522 133.508C63.4544 132.482 66.1702 130.758 68.3761 128.478C70.1397 126.774 71.5762 124.76 72.6146 122.538Z" fill="#606060"/>
<path d="M49.3105 43.3758C61.2508 43.3758 70.9305 33.6963 70.9305 21.7557C70.9305 9.81536 61.2508 0.135742 49.3105 0.135742C37.3701 0.135742 27.6904 9.81536 27.6904 21.7557C27.6904 33.6963 37.3701 43.3758 49.3105 43.3758Z" fill="#A8EF9E"/>
<path d="M69.901 23.2999C69.9004 26.3999 69.2334 29.4635 67.9449 32.283C66.6564 35.1025 64.7767 37.6121 62.4333 39.6414C60.0898 41.6707 57.3375 43.1723 54.3627 44.0446C51.388 44.9168 48.2606 45.1393 45.1924 44.6966C50.3369 43.953 55.0414 41.3807 58.4439 37.4508C61.8464 33.5211 63.7192 28.4971 63.7192 23.2989C63.7192 18.1009 61.8464 13.0769 58.4439 9.14713C55.0414 5.2174 50.3369 2.64508 45.1924 1.90138C48.2608 1.45883 51.3884 1.68126 54.3633 2.5536C57.3381 3.42596 60.0906 4.92781 62.434 6.95733C64.7775 8.98686 66.657 11.4966 67.9455 14.3163C69.2338 17.1361 69.9006 20.1999 69.901 23.2999Z" fill="#A7E59C"/>
<path d="M48.7958 45.5687C44.2892 45.5687 39.8838 44.2325 36.1367 41.7286C32.3894 39.2249 29.469 35.666 27.7445 31.5025C26.0199 27.3387 25.5689 22.7573 26.4483 18.3373C27.3274 13.9173 29.4978 9.85728 32.6847 6.67074C35.8715 3.4842 39.9316 1.31424 44.3517 0.435272C48.7719 -0.443694 53.3533 0.00781336 57.5168 1.7327C61.6802 3.45757 65.2387 6.37836 67.7422 10.1257C70.2457 13.873 71.5817 18.2785 71.5813 22.7851C71.5741 28.8259 69.1711 34.6171 64.8995 38.8883C60.6279 43.1596 54.8366 45.5621 48.7958 45.5687ZM48.7958 2.33063C44.7503 2.33063 40.7956 3.53028 37.4317 5.77785C34.0681 8.02542 31.4463 11.22 29.8981 14.9576C28.3502 18.6951 27.945 22.8078 28.7342 26.7756C29.5234 30.7435 31.4716 34.3881 34.3323 37.2488C37.1928 40.1093 40.8375 42.0575 44.8053 42.8467C48.773 43.6359 52.8857 43.2309 56.6235 41.6827C60.361 40.1346 63.5555 37.5128 65.8032 34.1491C68.0506 30.7853 69.2503 26.8308 69.2503 22.7851C69.2447 17.362 67.0877 12.1626 63.253 8.32789C59.4183 4.49314 54.2188 2.3363 48.7958 2.33063Z" fill="#426572"/>
<path d="M195.285 3.41833C189.704 3.42811 184.355 5.65342 180.413 9.60524C176.472 13.5571 174.261 18.9121 174.266 24.4934C174.27 30.0748 176.491 35.426 180.439 39.3708C184.388 43.3158 189.741 45.5316 195.322 45.5316C200.903 45.5316 206.257 43.3158 210.206 39.3708C214.153 35.426 216.373 30.0748 216.379 24.4934C216.385 18.9121 214.172 13.5571 210.231 9.60524C206.29 5.65342 200.94 3.42811 195.359 3.41833H195.285Z" fill="#87D6FE"/>
<path d="M216.56 24.7203C216.554 29.6979 214.787 34.513 211.572 38.3129C208.355 42.1128 203.899 44.6525 198.992 45.4825C194.084 46.3123 189.04 45.379 184.754 42.8477C180.468 40.3162 177.216 36.35 175.573 31.6511C175.683 31.5944 175.796 31.5456 175.913 31.5054C178.064 30.7556 179.992 32.9079 181.597 34.5202C184.983 37.9215 190.002 39.7319 194.73 38.92C199.458 38.108 203.699 34.5493 204.989 29.9281C206.154 25.7692 205.064 20.9557 207.389 17.3174C208.065 16.2903 208.975 15.4363 210.041 14.8239C211.107 14.2116 212.302 13.8581 213.53 13.7917C215.527 17.0865 216.574 20.8681 216.56 24.7203Z" fill="#37B5FF"/>
<path d="M195.869 46.9891C189.968 46.9891 184.31 44.6451 180.137 40.473C175.965 36.3007 173.621 30.642 173.621 24.7417C173.621 18.8412 175.965 13.1825 180.137 9.01028C184.31 4.83808 189.968 2.49414 195.869 2.49414H195.942C201.844 2.50393 207.498 4.85725 211.663 9.03639C215.828 13.2155 218.163 18.8781 218.153 24.7786C218.143 30.6789 215.789 36.3337 211.611 40.499C207.432 44.6643 201.77 46.9988 195.869 46.9891ZM195.869 4.82514C190.603 4.83468 185.556 6.93435 181.838 10.6628C178.12 14.3912 176.034 19.4435 176.039 24.709C176.043 29.9748 178.138 35.0231 181.864 38.7448C185.589 42.4666 190.639 44.5571 195.905 44.5571C201.17 44.5571 206.22 42.4666 209.946 38.7448C213.67 35.0231 215.766 29.9748 215.77 24.709C215.775 19.4435 213.689 14.3912 209.971 10.6628C206.253 6.93435 201.207 4.83468 195.94 4.82514H195.869Z" fill="#426572"/>
<path d="M198.578 40.3063C191.725 40.3063 190.346 35.0363 190.014 33.7173V23.1773H186.061V17.9073C187.882 17.0069 189.478 15.7099 190.732 14.1115C191.987 12.5131 192.867 10.6539 193.308 8.67065H197.261V17.9073H203.186V23.1773H197.261V32.4139C197.455 33.8611 198.246 34.9197 199.897 35.0499C201.608 34.9197 202.533 34.1272 202.601 33.8183L202.533 33.7504C202.548 33.7486 202.566 33.7535 202.578 33.7636C202.591 33.7739 202.599 33.7886 202.601 33.8047C202.601 33.8092 202.601 33.8137 202.601 33.8183L204.51 37.7033C204.51 37.7033 202.797 40.3063 198.578 40.3063Z" fill="white"/>
<path d="M47.4612 91.6079C41.8798 91.6176 36.5308 93.843 32.5892 97.7948C28.6477 101.747 26.4366 107.101 26.4414 112.683C26.4463 118.264 28.6669 123.615 32.6153 127.56C36.5638 131.505 41.9167 133.721 47.4981 133.721C53.0795 133.721 58.4327 131.505 62.381 127.56C66.3293 123.615 68.55 118.264 68.5549 112.683C68.5597 107.101 66.3486 101.747 62.407 97.7948C58.4657 93.843 53.1164 91.6176 47.535 91.6079H47.4612Z" fill="#E8837E"/>
<path d="M68.7353 112.91C68.7291 117.888 66.9618 122.703 63.7464 126.502C60.531 130.302 56.0749 132.842 51.1668 133.672C46.2588 134.502 41.2153 133.569 36.9294 131.037C32.6433 128.506 29.3911 124.54 27.7485 119.841C27.8581 119.784 27.9717 119.735 28.0885 119.695C30.2388 118.945 32.1677 121.097 33.7722 122.71C37.158 126.111 42.1774 127.921 46.9055 127.11C51.6335 126.298 55.874 122.739 57.1638 118.118C58.3293 113.959 57.2396 109.145 59.5648 105.507C60.2412 104.48 61.1489 103.626 62.2153 103.014C63.2818 102.401 64.4772 102.048 65.705 101.981C67.7011 105.276 68.7495 109.058 68.7353 112.91Z" fill="#D66765"/>
<path d="M48.0439 135.179C42.1435 135.179 36.4848 132.835 32.3125 128.663C28.1404 124.49 25.7964 118.832 25.7964 112.931C25.7964 107.031 28.1404 101.372 32.3125 97.1998C36.4848 93.0275 42.1435 90.6837 48.0439 90.6837H48.1177C54.018 90.6934 59.6728 93.0468 63.8382 97.2259C68.0035 101.405 70.338 107.068 70.3282 112.968C70.3185 118.868 67.9652 124.523 63.7861 128.689C59.6068 132.854 53.9442 135.188 48.0439 135.179ZM48.0439 93.0147C42.7781 93.0242 37.7317 95.1239 34.0134 98.8523C30.295 102.581 28.2092 107.633 28.2138 112.899C28.2187 118.164 30.3137 123.213 34.0388 126.934C37.7639 130.656 42.8141 132.747 48.0798 132.747C53.3455 132.747 58.3956 130.656 62.1208 126.934C65.8459 123.213 67.9409 118.164 67.9458 112.899C67.9506 107.633 65.8646 102.581 62.1462 98.8523C58.4279 95.1239 53.3815 93.0242 48.1157 93.0147H48.0439Z" fill="#426572"/>
<path d="M44.9983 125.019V110.916L41.1133 114.765L37.1934 110.685L45.9638 102.094H51.9214V125.019H44.9983Z" fill="white"/>
<path d="M136.158 114.188H79.561L91.216 98.092L98.9861 105.613L110.087 86.575L136.158 114.188Z" fill="#DDE4ED"/>
<path d="M101.117 84.4386C102.188 84.4386 103.235 84.121 104.126 83.5258C105.016 82.9308 105.71 82.0849 106.12 81.0954C106.53 80.1059 106.637 79.0169 106.428 77.9664C106.219 76.9157 105.704 75.9509 104.946 75.1935C104.189 74.4359 103.224 73.9202 102.173 73.7111C101.123 73.5023 100.034 73.6096 99.0444 74.0194C98.0547 74.4293 97.2089 75.1235 96.6139 76.014C96.0188 76.9046 95.7012 77.9518 95.7012 79.0229C95.7074 80.4573 96.2798 81.8312 97.2942 82.8456C98.3084 83.8599 99.6823 84.4324 101.117 84.4386Z" fill="#DDE4ED"/>
<path d="M192.98 88.7723H190.649V93.143H192.98V88.7723Z" fill="#426572"/>
<path d="M192.98 74.1725H190.649V85.9557H192.98V74.1725Z" fill="#426572"/>
<path d="M56.888 32.2993C50.5438 33.1987 42.7233 30.8716 42.7233 30.8716L38.8674 31.6389C38.6984 31.6715 38.5242 31.6655 38.3579 31.6214C38.1914 31.5773 38.0372 31.4961 37.9065 31.3842C37.7757 31.2721 37.672 31.1321 37.6031 30.9744C37.5339 30.8166 37.5015 30.6455 37.5077 30.4734C37.5858 27.7158 37.5151 24.9561 37.2959 22.2061C37.2765 22.0074 37.3095 21.8071 37.3919 21.6251C37.4741 21.4433 37.6027 21.2861 37.7647 21.1696C37.9269 21.0528 38.1166 20.9808 38.3152 20.9606C38.5139 20.9404 38.7144 20.9726 38.8966 21.0542C39.7654 21.4829 40.7175 21.7164 41.686 21.738C44.0267 21.7185 46.0702 19.9237 47.1153 17.7928C48.1604 15.6619 48.3973 14.2807 48.6168 11.9109C48.712 10.8755 48.8635 9.72751 49.6503 9.06317C51.01 7.91127 53.2478 9.25742 53.6887 10.996C54.1297 12.7345 53.4187 13.5018 52.8185 15.1976C52.43 16.3009 52.5154 16.3631 52.2008 17.4995C52.1607 17.5917 52.1409 17.6915 52.1431 17.7921C52.145 17.8927 52.1687 17.9916 52.2124 18.0822C52.2687 18.1454 52.3375 18.1963 52.4144 18.2317C52.4912 18.2671 52.5745 18.2863 52.6592 18.2881C53.9296 18.4513 54.7629 18.9253 56.0353 19.0651C56.6198 19.1283 57.1753 19.3529 57.6394 19.7139C58.1036 20.0748 58.4581 20.5577 58.6635 21.1086V30.6443C58.6654 30.8718 58.6201 31.0973 58.5306 31.3063C58.4409 31.5155 58.3088 31.7038 58.1427 31.8592C57.9764 32.0144 57.7798 32.1336 57.5652 32.2092C57.3505 32.2846 57.1227 32.3147 56.8958 32.2974L56.888 32.2993Z" fill="#85D175"/>
</g>
<defs>
<linearGradient id="paint0_linear_118_773" x1="0.256529" y1="86.0312" x2="243.706" y2="86.0312" gradientUnits="userSpaceOnUse">
<stop stop-color="#C5E9FA"/>
<stop offset="1" stop-color="#C4F4EA"/>
</linearGradient>
</defs>
</svg>
